:SAMPLES-PER-SECOND 30
:FULLY-SPECIFIED
:DEGREES
85
root  21.39168837 37.34422218 -34.50244393 -4.150109768 3.018150091 -0.1550610065
lowerback  4.484260082 -2.255579948 -0.1313830018
upperback  2.497889996 -3.00109005 2.553930044
thorax  0.1996890008 -1.521100044 2.820389986
lowerneck  -13.74660015 3.279249907 -1.187059999
upperneck  -1.895290017 4.61785984 -3.653860092
head  1.803009987 2.190749884 -0.6986809969
lclavicle  0 -1.620099928e-014 -1.431250036e-014
lhumerus  -31.22719955 -1.359969974 92.89900208
lradius  -2.244111942e-031 -2.726317228e-031 50.54119873
lwrist  -2.824900031e-030 -7.062250077e-031 22.40270042
lhand  -1.522208093e-030 -21.89089966 22.84740067
lfingers  90 7.125020027 -90
lthumb  90.61603193 7.755020578 85.4441456
rclavicle  0 -1.620099928e-014 -1.431250036e-014
rhumerus  -47.46480179 -20.26070023 -68.60099792
rradius  3.432256352e-031 8.29735121e-032 13.59029961
rwrist  0 -0 7.354549885
rhand  1.570731925e-030 -25.9428997 18.57430077
rfingers  -90 -7.125020027 -90
rthumb  -89.60083768 -33.59330664 -89.2785978
rfemur  -24.41349983 7.818769932 22.99510002
rtibia  -0 0 35.67409897
rfoot  -0 -9.686989784 -11.1850996
rtoes  -1.575397198 19.94038992 -85.38945295
lfemur  15.93570042 -1.195520043 -25.23940086
ltibia  -0 0 35.34529877
lfoot  4.415898848e-032 -1.721269965 2.226730108
ltoes  -3.695914299 -19.66929668 -100.8636129
86
root  21.35444401 37.38422244 -34.09066688 -4.12541008 3.063469887 -0.7892299891
lowerback  4.356289864 -2.298369884 0.5247319937
upperback  2.43550992 -3.033750057 2.642129898
thorax  0.1789810061 -1.530509949 2.541049957
lowerneck  -13.66149998 3.282789946 -0.975710988
upperneck  -1.994050026 4.582530022 -3.573790073
head  1.757959962 2.177540064 -0.7133539915
lclavicle  0 -1.620099928e-014 -1.431250036e-014
lhumerus  -31.56570053 -0.8528530002 92.64640045
lradius  -2.325845361e-031 -2.656931951e-031 48.80149841
lwrist  -2.824900031e-030 -1.765562519e-030 22.37010002
lhand  -1.522208093e-030 -21.89089966 22.84740067
lfingers  90 7.125020027 -90
lthumb  90.61603193 7.755020578 85.4441456
rclavicle  0 -1.620099928e-014 -1.431250036e-014
rhumerus  -47.12490082 -20.40679932 -68.8431015
rradius  3.432482127e-031 8.2880063e-032 13.57470036
rwrist  0 -4.237350046e-030 7.394979954
rhand  1.570731925e-030 -25.9428997 18.57430077
rfingers  -90 -7.125020027 -90
rthumb  -89.60083768 -33.59330664 -89.2785978
rfemur  -23.94510078 7.499700069 23.94059944
rtibia  -0 0 36.09590149
rfoot  -0 -10.4307003 -10.80869961
rtoes  -1.575397198 19.94038992 -85.38945295
lfemur  14.66049957 -1.097360015 -24.13809967
ltibia  -0 0 38.12990189
lfoot  6.622000804e-032 1.063799977 1.957999945
ltoes  -3.695914299 -19.66929668 -100.8636129
87
root  21.32451065 37.4140011 -33.68488822 -3.907059908 3.20152998 -0.757791996
lowerback  3.964750051 -2.33604002 0.5317659974
upperback  2.411000013 -3.092000008 2.555619955
thorax  0.3689999878 -1.55953002 2.432660103
lowerneck  -13.92949963 3.270230055 -0.8109999895
upperneck  -1.828799963 4.549839973 -3.525749922
head  1.863800049 2.156290054 -0.7227550149
lclavicle  0 -1.620099928e-014 -1.431250036e-014
lhumerus  -31.61520004 -0.1971369982 92.38629913
lradius  -2.411951108e-031 -2.579018396e-031 46.91719818
lwrist  -2.824900031e-030 1.059337512e-030 22.13080025
lhand  -1.522208093e-030 -21.89089966 22.84740067
lfingers  90 7.125020027 -90
lthumb  90.61603193 7.755020578 85.4441456
rclavicle  0 -1.620099928e-014 -1.431250036e-014
rhumerus  -46.51449966 -20.53100014 -69.28620148
rradius  3.43243439e-031 8.289983082e-032 13.57800007
rwrist  2.824900031e-030 -4.237350046e-030 7.426249981
rhand  1.570731925e-030 -25.9428997 18.57430077
rfingers  -90 -7.125020027 -90
rthumb  -89.60083768 -33.59330664 -89.2785978
rfemur  -23.65940094 7.247739792 24.08200073
rtibia  -0 0 36.43420029
rfoot  -0 -11.06840038 -10.69449997
rtoes  -1.575397198 19.94038992 -85.38945295
lfemur  13.09399986 -1.073429942 -23.83849907
ltibia  -0 0 40.93230057
lfoot  4.424355552e-032 3.93859005 1.827190042
ltoes  -3.695914299 -19.66929668 -100.8636129
88
root  21.29208873 37.41466793 -33.3142228 -3.750279903 3.31092 -0.5304480195
lowerback  3.867880106 -2.341520071 0.2050260007
upperback  2.359989882 -3.110739946 2.542010069
thorax  0.3880600035 -1.572360039 2.598720074
lowerneck  -14.13619995 3.309010029 -0.903801024
upperneck  -1.732509971 4.616809845 -3.336250067
head  1.925420046 2.192070007 -0.6383290291
lclavicle  0 -1.620099928e-014 -1.431250036e-014
lhumerus  -31.59519958 0.7996969819 92.21469879
lradius  -2.500196578e-031 -2.493563937e-031 44.9239006
lwrist  0 -0 21.62129974
lhand  -1.522208093e-030 -21.89089966 22.84740067
lfingers  90 7.125020027 -90
lthumb  90.61603193 7.755020578 85.4441456
rclavicle  0 -1.620099928e-014 -1.431250036e-014
rhumerus  -45.83209991 -20.35779953 -69.75170135
rradius  3.429336186e-031 8.417228519e-032 13.79049969
rwrist  0 -1.412450015e-030 7.009840012
rhand  1.570731925e-030 -25.9428997 18.57430077
rfingers  -90 -7.125020027 -90
rthumb  -89.60083768 -33.59330664 -89.2785978
rfemur  -23.3192997 7.35627985 23.98590088
rtibia  -0 0 36.71360016
rfoot  -0 -11.7677002 -10.86190033
rtoes  -1.575397198 19.94038992 -85.38945295
lfemur  11.50629997 -1.010740042 -23.79140091
ltibia  -0 0 43.75370026
lfoot  4.442303513e-032 6.481910229 1.233629942
ltoes  -3.695914299 -19.66929668 -100.8636129
